<svg xmlns="http://www.w3.org/2000/svg" viewBox="0 0 128 128" role="img" aria-label="Public Health Shield Icon">
  <defs>
    <linearGradient id="shieldGradient" x1="24" y1="24" x2="104" y2="104" gradientUnits="userSpaceOnUse">
      <stop offset="0%" stop-color="#22c55e" />
      <stop offset="100%" stop-color="#0f766e" />
    </linearGradient>
    <filter id="shadow" x="-20%" y="-20%" width="140%" height="140%">
      <feDropShadow dx="0" dy="4" stdDeviation="4" flood-color="#0f766e" flood-opacity="0.18" />
    </filter>
  </defs>
  <rect width="128" height="128" rx="24" fill="#fff" />
  <path d="M64 18c-23 0-42 12-54 34 0 35 21 64 54 76 33-12 54-41 54-76C106 30 87 18 64 18Z" fill="url(#shieldGradient)" stroke="#064e3b" stroke-width="6" filter="url(#shadow)" />
  <path d="M64 44c-13 0-24 11-24 24v16c0 13 11 24 24 24s24-11 24-24V68c0-13-11-24-24-24Zm-5 16h10v10H59v10h-10V84H39v-10h10V64h10v10Z" fill="#fff" />
</svg>